<?xml version="1.0" encoding="UTF-8" standalone="no"?><!DOCTYPE svg PUBLIC "-//W3C//DTD SVG 1.1//EN" "http://www.w3.org/Graphics/SVG/1.1/DTD/svg11.dtd"><svg width="100%" height="100%" viewBox="0 0 15 14" version="1.1" xmlns="http://www.w3.org/2000/svg" xmlns:xlink="http://www.w3.org/1999/xlink" xml:space="preserve" style="fill-rule:evenodd;clip-rule:evenodd;stroke-linecap:round;stroke-linejoin:round;stroke-miterlimit:1.5;"><path d="M6.912,0.663c0.041,-0.099 0.138,-0.163 0.245,-0.163c0.108,0 0.205,0.064 0.246,0.163l1.725,4.124l4.455,0.367c0.107,0.009 0.199,0.081 0.232,0.183c0.033,0.102 0.002,0.214 -0.08,0.284l-3.389,2.915l1.028,4.35c0.025,0.105 -0.015,0.214 -0.102,0.277c-0.087,0.063 -0.203,0.068 -0.295,0.012l-3.82,-2.322l-3.819,2.322c-0.092,0.056 -0.208,0.051 -0.295,-0.012c-0.087,-0.063 -0.127,-0.172 -0.103,-0.277l1.029,-4.35l-3.389,-2.915c-0.082,-0.07 -0.113,-0.182 -0.08,-0.284c0.033,-0.102 0.124,-0.174 0.231,-0.183l4.456,-0.367l1.725,-4.124Z" style="fill:none;stroke:#cbd6d7;stroke-width:1px;"/></svg>