<?xml version="1.0" encoding="UTF-8" standalone="no"?><!DOCTYPE svg PUBLIC "-//W3C//DTD SVG 1.1//EN" "http://www.w3.org/Graphics/SVG/1.1/DTD/svg11.dtd"><svg width="100%" height="100%" viewBox="0 0 24 23" version="1.1" xmlns="http://www.w3.org/2000/svg" xmlns:xlink="http://www.w3.org/1999/xlink" xml:space="preserve" style="fill-rule:evenodd;clip-rule:evenodd;stroke-linecap:round;stroke-linejoin:round;stroke-miterlimit:1.5;"><path d="M11.492,0.78c0.071,-0.169 0.237,-0.28 0.421,-0.28c0.184,0 0.35,0.111 0.421,0.28l2.957,7.07l7.638,0.628c0.183,0.015 0.339,0.139 0.396,0.314c0.057,0.175 0.003,0.367 -0.136,0.487l-5.81,4.997l1.763,7.458c0.042,0.179 -0.027,0.366 -0.176,0.474c-0.149,0.108 -0.348,0.117 -0.505,0.021l-6.548,-3.981l-6.548,3.981c-0.158,0.096 -0.357,0.087 -0.506,-0.021c-0.149,-0.108 -0.218,-0.295 -0.176,-0.474l1.763,-7.458l-5.81,-4.997c-0.139,-0.12 -0.193,-0.312 -0.136,-0.487c0.057,-0.175 0.213,-0.299 0.397,-0.314l7.637,-0.628l2.958,-7.07Z" style="fill:#ffc200;stroke:#cbd6d7;stroke-width:1px;"/></svg>